<svg xmlns="http://www.w3.org/2000/svg" viewBox="0 0 32 32" width="32" height="32"><circle cx="16" cy="16" r="15.5" fill="#14120f" stroke="#b18a40" stroke-width="0.8"/><path d="M 8.5 4.5 L 5.8 5.5 C 4.4 6.1 4.1 7.2 4.5 9.1 C 6.2 18.2 13.8 25.8 22.9 27.5 C 24.8 27.9 25.9 27.6 26.5 26.2 L 27.5 23.5 C 28 22.5 27.5 21.5 26.5 21 L 22 18.8 C 21.1 18.4 20.1 18.6 19.5 19.4 L 17.9 21.1 C 14.8 19.5 12.5 17.2 10.9 14.1 L 12.6 12.5 C 13.4 11.9 13.6 10.9 13.2 10 L 11 5.5 C 10.5 4.5 9.5 4 8.5 4.5 Z" fill="#edc16b"/></svg>
